<svg xmlns="http://www.w3.org/2000/svg" id="Camada_1" data-name="Camada 1" viewBox="0 0 300 300"><defs><style>      .cls-1 {        fill: #25303f;      }      .cls-1, .cls-2, .cls-3 {        stroke-width: 0px;      }      .cls-2 {        fill: #f5991d;      }      .cls-3 {        fill: #fff;      }    </style></defs><path class="cls-3" d="M207.7,271.4c0-4.7,3.7-8.5,8.5-8.5s8.5,3.7,8.5,8.4-3.7,8.4-8.5,8.4-8.5-3.6-8.5-8.4M223.1,271.4c0-4.1-2.9-7.1-6.9-7.1s-6.9,3-6.9,7.1,3.1,7,6.9,7c3.9,0,6.9-2.9,6.9-7.1M213.3,267.1h3c2,0,3.2.8,3.2,2.5h0c0,1.3-.7,2-1.7,2.3l2.2,3.6h-1.9l-2-3.2h-.9v3.2h-1.8v-8.3h0ZM216.2,271c1,0,1.5-.4,1.5-1.2h0c0-.9-.5-1.2-1.5-1.2h-1.1v2.5s1.1,0,1.1,0Z"></path><path class="cls-3" d="M202.7,2.9H2v201.6l93.5,93.4h201.6V97.4L202.7,2.9Z"></path><path class="cls-2" d="M200.2,9.1l90.8,90.7v192.1H97.9L8.2,202.1V9.1h192.1M202.7,2.9H2v201.6l93.5,93.4h201.6V97.4L202.7,2.9Z"></path><path class="cls-1" d="M49.9,169.1v10.8h-6.2v-29.5h11.3c2.7-.2,5.2.7,7.4,2.5,3.7,3.9,3.7,9.8,0,13.8-2,1.7-4.7,2.7-7.4,2.5,0,0-5.2,0-5.2,0ZM49.9,164.5h4.5c1.2,0,2.5-.2,3.2-1.2,1.5-2,1.5-4.9,0-6.9-1-.7-2-1.2-3.2-1.2h-4.5v9.3ZM91,180l-2-6.6h-10.1l-2,6.6h-6.6l10.3-29.5h7.1l10.1,29.5s-6.9,0-6.9,0ZM80.3,168.7h7.4l-3.7-12.3-3.7,12.3ZM106.8,180v-29.5h11.3c2.7-.2,5.2.7,7.4,2.5,1.7,1.7,2.7,4.2,2.7,6.6s-.5,3.2-1.5,4.7c-1,1.5-2.5,2.5-3.9,3.2l7.4,12.8h-6.6l-6.4-11.5h-4.2v11.3s-6.2,0-6.2,0ZM112.9,164h4.5c2.2.2,4.2-1.2,4.4-3.5v-1.2c.3-2.2-1.2-4.2-3.2-4.4h-5.5v9.1h-.2ZM145.1,180v-24.3h-9.1v-5.2h24.3v5.2h-9.1v24.3h-6.1ZM175.9,159.6v20.4h-5.7v-29.5h6.9l12,20.7v-20.7h5.7v29.5h-6.9l-12-20.4ZM206.1,180v-29.5h19.4v4.9h-13v6.9h10.6v4.9h-10.6v7.9h13v4.9h-19.4ZM236.9,180v-29.5h11.3c2.7-.2,5.2.7,7.4,2.5,1.7,1.7,2.7,4.2,2.7,6.6s-.5,3.2-1.5,4.7c-1,1.5-2.5,2.5-3.9,3.2l7.4,12.8h-6.7l-6.4-11.5h-4.2v11.3s-6.1,0-6.1,0ZM243,164h4.5c2.2.2,4.2-1.2,4.4-3.5v-1.2c.2-2.2-1.2-4.2-3.2-4.4h-5.7v9.1Z"></path><path class="cls-1" d="M67.7,70.6c0,1,0,2,.5,3,.2.7.7,1.7,1,2.5.2.3.2.5.2.7,0,.5-.2.7-.7,1l-2.2,1.5h-.7c-.5,0-.7-.2-1-.5-.5-.5-1-1-1.2-1.5-.2-.5-.7-1.2-1-2-2.5,3-5.9,4.7-9.8,4.7-2.5.2-4.9-.7-6.6-2.5-1.7-1.7-2.5-3.9-2.5-6.4s1-5.2,3-6.9c2.2-1.7,5.2-2.7,8.1-2.7s2.5,0,3.5.2c1.2.2,2.5.5,3.7.7v-2.5c.2-2-.3-3.9-1.5-5.4-1.5-1.2-3.4-1.7-5.4-1.5-1.2,0-2.5.2-3.7.5-1.2.2-2.5.7-3.7,1.2-.5.2-.7.2-1.2.5h-.5c-.5,0-.7-.3-.7-1v-1.7c0-.5,0-.7.2-1.2.2-.2.5-.5,1-.7,1.2-.7,2.7-1.2,4.2-1.5,1.7-.5,3.5-.7,5.2-.7,3.2-.2,6.2.7,8.6,2.7,2,2.2,3,5.2,2.7,8.1l.6,11.3ZM54.1,75.5c1.2,0,2.2-.2,3.5-.5,1.2-.5,2.2-1.2,3.2-2.2.5-.5,1-1.2,1.2-2.2.2-1,.2-2,.2-3v-1.6c-1-.2-2-.5-3-.5-1-.2-2-.2-3.2-.2-1.7-.2-3.5.2-4.9,1.2-2,2-2.2,5.2-.5,7.4,1,1.2,2.2,1.7,3.4,1.5h0ZM80.9,79.2c-.5,0-1,0-1.2-.2-.2-.2-.5-.7-.7-1.2l-7.9-25.8c-.2-.5-.2-1-.2-1.2,0-.5.2-.7.5-.7h3.5c.5,0,1,0,1.2.2.2.3.5.7.7,1.2l5.7,21.9,5.2-21.9c0-.5.2-1,.7-1.2s1-.2,1.2-.2h2.7c.5,0,1,0,1.2.2.3.3.5.7.7,1.2l5.2,22.4,5.7-22.4c0-.5.2-1,.7-1.2s.7-.2,1.2-.2h3.2c.5,0,.7.2.7.5v.7c0,.2-.3.5-.3.7l-7.9,25.7c0,.5-.2,1-.7,1.2-.2.5-.7.5-1.2.5h-3c-.5,0-1,0-1.2-.2-.2-.5-.5-.7-.7-1.2l-5.2-21.4-5.2,21.4c0,.5-.2,1-.7,1.2-.2.2-.7.2-1,.2,0,0-2.9,0-2.9,0ZM123.7,80.1c-1.7,0-3.5-.2-5.2-.5-1.2-.2-2.7-.7-3.9-1.2-.7-.2-1.2-1-1.2-2v-1.7c0-.7.2-1,.7-1h.5c.2,0,.5.2.7.2,1.2.5,2.5,1,3.7,1.2,1.2.2,2.7.5,3.9.5,1.7,0,3.5-.2,4.9-1.2,1-.7,1.7-2,1.7-3.2s-.2-1.7-1-2.2c-1-.7-2.2-1.5-3.5-1.7l-4.9-1.5c-2-.5-3.9-1.7-5.4-3.5-1-1.5-1.7-3.2-1.7-4.9s.3-2.5,1-3.7c.5-1,1.5-2,2.5-2.7,1-.7,2.2-1.5,3.5-1.7,1.5-.5,2.7-.5,4.2-.5s1.5,0,2.2.3c.7,0,1.5.2,2.2.5s1.2.2,2,.5c.5.3,1,.3,1.5.5s.7.5,1,.7c.2.3.2.7.2,1.2v1.5c0,.7-.2,1-.7,1s-1-.2-1.2-.5c-2-1-4.2-1.2-6.4-1.2s-3,.2-4.5,1c-1,.5-1.7,1.7-1.5,3,0,1,.2,1.7,1,2.5,1,1,2.2,1.5,3.7,1.7l4.7,1.5c2,.5,3.7,1.7,5.2,3.2,1,1.2,1.5,3,1.5,4.7s-.2,2.7-1,3.9c-.5,1.2-1.5,2.2-2.5,3-1,.7-2.5,1.5-3.7,2-1,.3-2.7.5-4.1.5h0Z"></path><path class="cls-2" d="M129.9,96.1c-11.1,8.1-26.8,12.3-40.6,12.3s-35.9-6.7-49.4-19c-1-1,0-2.2,1.2-1.5,15,8.8,32.2,13.3,49.4,13.3s25.8-2.7,37.9-7.7c1.7-.7,3.4,1.3,1.5,2.5h0ZM131.6,103.5c-.5,1,.5,1.5,1.5.7,5.9-4.9,7.4-15.2,6.2-16.7s-11.6-2.7-17.7,1.7c-1,.7-.7,1.7.2,1.5,3.5-.5,11.3-1.5,12.8.5,1.5,1.9-1.7,9.1-3,12.3h0Z"></path><path class="cls-1" d="M128.4,200.6v6.4h-3v-17h6.3c1.7,0,3.1.5,4.1,1.5,1,1,1.5,2.2,1.5,3.9s-.5,3-1.5,3.9-2.3,1.4-4.1,1.4h-3.4ZM128.4,198.3h3.1c1,0,1.6-.2,2.2-.8.5-.5.7-1.3.7-2.2s-.2-1.7-.7-2.2c-.5-.5-1.2-.7-2.2-.7h-3.1v6Z"></path><path class="cls-1" d="M140.2,207v-12.5h2.4l.4,1.9c.7-.7,1.3-1.2,1.9-1.5.5-.3,1.2-.5,1.9-.5s.6,0,1,0v2.6c-.5,0-1-.1-1.4-.1-1.2,0-2.3.3-3.2.9v9.1h-3Z"></path><path class="cls-1" d="M151.6,201.5c0,1.3.4,2.2,1,2.7.7.5,1.6.8,3,.8s2.6-.2,4-.7v2.1c-.5.3-1.2.5-2,.7-.7.2-1.6.3-2.4.3-2.1,0-3.6-.5-4.7-1.6-1-1.1-1.6-2.7-1.6-4.9s.5-3.7,1.6-4.9c1-1.2,2.5-1.8,4.4-1.8s2.8.5,3.7,1.3,1.3,2.1,1.3,3.7,0,1.6-.2,2.3c0,0-8,0-8,0ZM154.7,196.3c-.9,0-1.6.3-2.2.9s-.9,1.4-1,2.4h5.7v-.2c0-1-.2-1.8-.7-2.3-.3-.5-1-.8-1.8-.8h0Z"></path><path class="cls-1" d="M178.6,207v-8.5c0-.7-.1-1.3-.5-1.6-.3-.3-.7-.5-1.4-.5s-1,0-1.6.3c-.5.1-1,.4-1.5.7v9.7h-2.9v-8.5c0-.7-.1-1.3-.5-1.6-.3-.3-.7-.5-1.4-.5s-1,0-1.6.2c-.5.1-1,.4-1.5.7v9.7h-2.9v-12.5h2.4l.3,1.3c.8-.5,1.6-1,2.3-1.2s1.5-.4,2.2-.4c1.5,0,2.6.5,3.1,1.7,1.6-1.1,3.2-1.7,4.7-1.7s2.1.3,2.7,1,1,1.5,1,2.7v9.2h-3Z"></path><path class="cls-1" d="M185.1,207v-12.5h2.9v12.5h-2.9ZM186.5,192.4c-.5,0-1-.1-1.3-.5s-.5-.7-.5-1.2.1-1,.5-1.2c.3-.3.7-.5,1.3-.5s1,.1,1.3.5c.3.3.5.7.5,1.2s-.1.9-.5,1.2-.8.5-1.3.5h0Z"></path><path class="cls-1" d="M193.6,201.5c0,1.3.4,2.2,1,2.7.7.5,1.6.8,3,.8s2.6-.2,4-.7v2.1c-.5.3-1.2.5-2,.7-.8.2-1.6.3-2.4.3-2.1,0-3.6-.5-4.7-1.6-1-1.1-1.6-2.7-1.6-4.9s.5-3.7,1.6-4.9c1-1.2,2.5-1.8,4.4-1.8s2.8.5,3.7,1.3,1.3,2.1,1.3,3.7,0,1.6-.2,2.3c0,0-8,0-8,0ZM196.7,196.3c-.9,0-1.6.3-2.2.9s-.9,1.4-1,2.4h5.7v-.2c0-1-.2-1.8-.7-2.3-.4-.5-1-.8-1.8-.8h0Z"></path><path class="cls-1" d="M204.7,207v-12.5h2.4l.4,1.9c.7-.7,1.3-1.2,1.9-1.5.5-.3,1.2-.5,1.9-.5s.6,0,1,0v2.6c-.5,0-1-.1-1.4-.1-1.2,0-2.3.3-3.2.9v9.1h-3Z"></path><path class="cls-1" d="M224.5,207v-14.6h-5.4v-2.5h13.7v2.5h-5.4v14.6h-2.9Z"></path><path class="cls-1" d="M235.1,207v-12.5h2.9v12.5h-2.9ZM236.6,192.4c-.5,0-1-.1-1.3-.5s-.5-.7-.5-1.2.1-1,.5-1.2c.3-.3.7-.5,1.3-.5s1,.1,1.3.5c.3.3.5.7.5,1.2s-.1.9-.5,1.2c-.4.3-.8.5-1.3.5h0Z"></path><path class="cls-1" d="M243.7,201.5c0,1.3.4,2.2,1,2.7.7.5,1.6.8,3,.8s2.6-.2,4-.7v2.1c-.5.3-1.2.5-2,.7-.8.2-1.6.3-2.4.3-2.1,0-3.6-.5-4.7-1.6-1-1.1-1.6-2.7-1.6-4.9s.5-3.7,1.6-4.9c1-1.2,2.5-1.8,4.4-1.8s2.8.5,3.7,1.3,1.3,2.1,1.3,3.7,0,1.6-.2,2.3c0,0-8,0-8,0ZM246.8,196.3c-.9,0-1.6.3-2.2.9s-.9,1.4-1,2.4h5.7v-.2c0-1-.2-1.8-.7-2.3-.4-.5-1-.8-1.8-.8h0Z"></path><path class="cls-1" d="M254.7,207v-12.5h2.5l.4,1.9c.7-.7,1.3-1.2,1.9-1.5.5-.3,1.2-.5,1.9-.5s.6,0,1,0v2.6c-.5,0-1-.1-1.4-.1-1.2,0-2.3.3-3.2.9v9.1h-3Z"></path><path class="cls-1" d="M176,223.8c-1.4-.5-2.4-1.2-3.1-1.9-.6-.7-.9-1.6-.9-2.7,0-1.5.5-2.7,1.6-3.6s2.5-1.3,4.3-1.3,3.1.3,4.6.9v2.4c-1.6-.5-3.1-.7-4.4-.7-2.2,0-3.3.7-3.3,2.2s.2,1,.6,1.4c.4.4,1.1.7,2.1,1l2.1.7c1.3.5,2.4,1.1,3,1.9.6.7.9,1.6.9,2.7,0,1.6-.6,3-1.8,3.9-1.1,1-2.7,1.4-4.8,1.4s-1.7-.1-2.6-.3c-.9-.2-1.6-.5-2.3-.7v-2.4c.8.2,1.6.5,2.5.6.9.1,1.7.2,2.4.2,1.1,0,2.1-.2,2.6-.6.6-.5,1-1,1-1.8s-.2-1-.6-1.4c-.4-.4-1-.7-2-1l-2.1-.9Z"></path><path class="cls-1" d="M188.7,226c0,1.3.4,2.2,1,2.7.7.5,1.6.8,3,.8s2.6-.2,4-.7v2.1c-.5.3-1.2.5-2,.7-.8.2-1.6.3-2.4.3-2.1,0-3.6-.5-4.7-1.6-1-1.1-1.6-2.7-1.6-4.9s.5-3.7,1.6-4.9c1-1.2,2.5-1.8,4.4-1.8s2.8.5,3.7,1.3,1.3,2.1,1.3,3.7,0,1.6-.2,2.3c0,0-8,0-8,0ZM191.8,220.9c-.9,0-1.6.3-2.2.9-.5.6-.9,1.4-1,2.4h5.7v-.2c0-1-.2-1.8-.7-2.3-.4-.6-1-.8-1.8-.8h0Z"></path><path class="cls-1" d="M199.8,231.6v-12.5h2.5l.4,1.9c.7-.7,1.3-1.2,1.9-1.5.5-.3,1.2-.5,1.9-.5s.6,0,1,0v2.6c-.5,0-1-.1-1.4-.1-1.2,0-2.3.3-3.2.9v9.1h-3Z"></path><path class="cls-1" d="M212.6,231.6l-4.9-12.5h3.1l3.2,9.9,3.2-9.9h3l-4.8,12.5h-2.8Z"></path><path class="cls-1" d="M222.2,231.6v-12.5h2.9v12.5h-2.9ZM223.6,217.1c-.5,0-1-.1-1.3-.5s-.5-.7-.5-1.2.1-1,.5-1.2c.3-.3.7-.5,1.3-.5s1,.1,1.3.5c.3.3.5.7.5,1.2s-.1.9-.5,1.2c-.3.3-.8.5-1.3.5h0Z"></path><path class="cls-1" d="M237.6,231.1c-1,.5-2.1.7-3.5.7-1.9,0-3.4-.5-4.5-1.6-1-1.1-1.5-2.7-1.5-4.8s.5-3.7,1.6-4.9c1-1.2,2.6-1.8,4.5-1.8s2.3.2,3.3.7v2.1c-1.1-.3-2.1-.5-2.8-.5-1.2,0-2.1.3-2.7,1s-.9,1.7-.9,3.1v.3c0,1.4.3,2.4.9,3.1.6.6,1.5,1,2.7,1s1.9-.1,2.9-.5v2.1h0Z"></path><path class="cls-1" d="M242.2,226c0,1.3.4,2.2,1,2.7.7.5,1.6.8,3,.8s2.6-.2,4-.7v2.1c-.5.3-1.2.5-2,.7-.7.2-1.6.3-2.4.3-2.1,0-3.6-.5-4.7-1.6-1-1.1-1.6-2.7-1.6-4.9s.5-3.7,1.6-4.9c1-1.2,2.5-1.8,4.4-1.8s2.8.5,3.7,1.3,1.3,2.1,1.3,3.7,0,1.6-.2,2.3c0,0-8.1,0-8.1,0ZM245.3,220.9c-.9,0-1.6.3-2.2.9-.5.6-.9,1.4-1,2.4h5.7v-.2c0-1-.2-1.8-.7-2.3-.4-.6-1-.8-1.8-.8h0Z"></path><path class="cls-1" d="M258.9,228.3c0-.4-.1-.7-.4-.9-.2-.2-.7-.5-1.3-.7l-2.1-.7c-1.9-.7-2.7-1.9-2.7-3.5s.5-2.1,1.3-2.7c.9-.7,2-1,3.4-1s2.6.2,3.7.8v2.1c-1.3-.4-2.4-.6-3.5-.6s-1.3.1-1.6.4c-.4.2-.5.6-.5,1s.1.7.4.9c.2.2.7.5,1.3.7l1.9.7c1,.4,1.6.8,2.1,1.4.5.5.7,1.2.7,2,0,1.2-.5,2.2-1.3,2.9-.9.7-2.1,1-3.7,1s-1.5,0-2.3-.3c-.7-.1-1.4-.4-1.9-.7v-2.1c1.6.5,3,.8,4.2.8s1.4-.1,1.8-.4c.3,0,.5-.5.5-1h0Z"></path></svg>